<?xml version="1.0" standalone="no"?>
<!DOCTYPE svg PUBLIC "-//W3C//DTD SVG 20010904//EN"
 "http://www.w3.org/TR/2001/REC-SVG-20010904/DTD/svg10.dtd">
<svg version="1.0" xmlns="http://www.w3.org/2000/svg"
 width="621.000000pt" height="621.000000pt" viewBox="0 0 621.000000 621.000000"
 preserveAspectRatio="xMidYMid meet">
<metadata>
Created by potrace 1.14, written by Peter Selinger 2001-2017
</metadata>
<g transform="translate(0.000000,621.000000) scale(0.100000,-0.100000)"
fill="#000000" stroke="none">
<path d="M2261 5403 c-1 -70 -3 -128 -5 -130 -3 -3 -61 -4 -130 -4 l-125 2 1
-126 c0 -69 -2 -128 -5 -132 -4 -3 -63 -5 -132 -5 l-125 1 0 -782 0 -782 -127
0 -128 0 -5 -130 -5 -130 -125 0 -125 0 -5 -260 -5 -260 -128 0 -127 0 -1 -35
c0 -19 0 -371 0 -782 l-1 -748 -129 0 c-116 0 -129 -2 -130 -17 0 -10 0 -69 0
-130 l0 -113 -132 0 -132 0 2 -121 c1 -67 5 -124 8 -127 7 -8 4664 -9 4674 -2
4 3 7 60 7 127 l1 123 -261 2 -261 3 0 253 c0 143 4 256 9 260 5 3 64 6 130 6
l121 1 0 128 0 127 50 1 c28 1 78 0 113 0 104 -3 100 -9 98 130 0 67 3 123 8
126 5 3 62 5 126 4 87 -1 119 2 122 11 3 7 4 711 4 1563 l-1 1550 -123 2 c-68
0 -126 4 -130 7 -3 4 -6 61 -6 129 l-1 122 -127 3 c-113 2 -128 5 -129 20 -1
9 -2 67 -3 127 l-1 110 -1302 2 -1302 1 0 -125z"/>
</g>
</svg>
